HIERARCHY
ROOT Hips
{
	OFFSET 0.000000 88.474243 0.000000
	CHANNELS 6 Xposition Yposition Zposition Zrotation Yrotation Xrotation 
	JOINT Hips_Spine
	{
		OFFSET 0.000000 0.000000 0.000000
		CHANNELS 3 Zrotation Yrotation Xrotation
		JOINT Spine
		{
			OFFSET 0.005100 8.711998 -0.691000
			CHANNELS 3 Zrotation Yrotation Xrotation
			JOINT Spine1
			{
				OFFSET -0.009200 8.660301 -1.275000
				CHANNELS 3 Zrotation Yrotation Xrotation
				JOINT Spine2
				{
					OFFSET 0.006300 9.852501 -1.857000
					CHANNELS 3 Zrotation Yrotation Xrotation
					JOINT Spine2_Neck
					{
						OFFSET 0.000000 0.000000 0.000000
						CHANNELS 3 Zrotation Yrotation Xrotation
						JOINT Neck
						{
							OFFSET 0.016300 11.420799 -0.263300
							CHANNELS 3 Zrotation Yrotation Xrotation
							End Site #name: Head
							{
								OFFSET -0.019200 9.262405 2.362500
							}
						}
					}
					JOINT Spine2_LeftShoulder
					{
						OFFSET 0.000000 0.000000 0.000000
						CHANNELS 3 Zrotation Yrotation Xrotation
						JOINT LeftShoulder
						{
							OFFSET 5.616900 6.732201 -0.345700
							CHANNELS 3 Zrotation Yrotation Xrotation
							JOINT LeftArm
							{
								OFFSET 10.664888 -0.183372 -2.440700
								CHANNELS 3 Zrotation Yrotation Xrotation
								JOINT LeftForeArm
								{
									OFFSET 27.459126 0.000000 0.000000
									CHANNELS 3 Zrotation Yrotation Xrotation
									End Site #name: LeftHand
									{
										OFFSET 21.306858 0.000000 0.000000
									}
								}
							}
						}
					}
					JOINT Spine2_RightShoulder
					{
						OFFSET 0.000000 0.000000 0.000000
						CHANNELS 3 Zrotation Yrotation Xrotation
						JOINT RightShoulder
						{
							OFFSET -5.580300 6.737503 -0.344400
							CHANNELS 3 Zrotation Yrotation Xrotation
							JOINT RightArm
							{
								OFFSET -10.679335 -0.188484 -2.383900
								CHANNELS 3 Zrotation Yrotation Xrotation
								JOINT RightForeArm
								{
									OFFSET -27.503529 0.000000 0.000000
									CHANNELS 3 Zrotation Yrotation Xrotation
									End Site #name: RightHand
									{
										OFFSET -21.306808 0.000000 0.000000
									}
								}
							}
						}
					}
				}
			}
		}
	}
	JOINT Hips_LeftUpLeg
	{
		OFFSET 0.000000 0.000000 0.000000
		CHANNELS 3 Zrotation Yrotation Xrotation
		JOINT LeftUpLeg
		{
			OFFSET 6.857700 -6.739601 0.312100
			CHANNELS 3 Zrotation Yrotation Xrotation
			JOINT LeftLeg
			{
				OFFSET -0.367590 -34.731552 -4.572400
				CHANNELS 3 Zrotation Yrotation Xrotation
				End Site #name: LeftFoot
				{
					OFFSET 0.367590 -34.656704 -6.067400
				}
			}
		}
	}
	JOINT Hips_RightUpLeg
	{
		OFFSET 0.000000 0.000000 0.000000
		CHANNELS 3 Zrotation Yrotation Xrotation
		JOINT RightUpLeg
		{
			OFFSET -6.876100 -6.733299 0.301000
			CHANNELS 3 Zrotation Yrotation Xrotation
			JOINT RightLeg
			{
				OFFSET 0.347353 -34.795158 -4.515900
				CHANNELS 3 Zrotation Yrotation Xrotation
				End Site #name: RightFoot
				{
					OFFSET -0.347353 -34.589367 -6.070300
				}
			}
		}
	}
}
MOTION
Frames: 6
Frame Time: 0.041667
0.841838 -1.400801 -2.789122 -8.871794 41.538514 -5.276457 0.000000 -0.000000 0.000000 4.017160 -6.052410 3.421217 4.718111 -1.555376 9.025622 0.000000 0.000000 0.000000 4.699810 -2.092404 8.355145 2.223824 -20.192790 0.762484 2.228143 -0.244247 7.862100 -1.642701 -1.101490 -4.213190 -83.788718 -15.683815 -1.641428 0.384046 -6.837929 2.287883 4.360223 -2.844224 8.478200 18.254660 18.530429 3.086330 60.031602 8.654073 -4.040145 -179.312249 54.607828 -173.868071 0.000000 0.000000 -0.000000 4.298540 21.176265 -11.241019 -3.164772 -23.064241 -0.459199 0.000000 0.000000 0.000000 -1.783873 -23.290791 -4.024873 -2.992852 -4.825558 15.928015 
0.849717 -1.432004 -2.871937 -8.751412 41.309722 -5.184624 0.000000 -0.000000 0.000000 4.044214 -6.011065 3.430641 4.666535 -1.524324 8.939985 0.000000 0.000000 0.000000 4.663449 -2.073122 8.283911 2.105192 -20.011501 0.734050 2.208141 -0.228134 7.810292 -1.649770 -1.145380 -4.191758 -83.778939 -15.788891 -1.443200 0.555167 -6.876512 2.401738 4.318792 -2.818108 8.423472 18.276247 18.591877 3.104495 59.881402 9.068856 -3.482242 -179.180049 55.640063 -173.729119 0.000000 0.000000 -0.000000 4.279927 21.007438 -11.226971 -3.180607 -23.199376 -0.540096 0.000000 0.000000 0.000000 -1.700777 -23.172839 -4.017333 -3.015701 -4.806092 15.913852 
0.858384 -1.462379 -2.952805 -8.640864 41.096846 -5.085782 0.000000 -0.000000 0.000000 4.050026 -5.996605 3.450104 4.595449 -1.493673 8.858924 0.000000 0.000000 0.000000 4.614965 -2.053525 8.214322 1.970076 -19.737450 0.723706 2.178957 -0.215797 7.761806 -1.645268 -1.214276 -4.163997 -83.758011 -15.896732 -1.252814 0.728408 -6.894551 2.512082 4.259055 -2.795274 8.366561 18.290819 18.642171 3.091011 59.738537 9.497274 -2.966854 -179.049625 56.542144 -173.592422 0.000000 0.000000 -0.000000 4.261685 20.827668 -11.210253 -3.195627 -23.353789 -0.644156 0.000000 -0.000000 0.000000 -1.630718 -23.113380 -4.009532 -3.063682 -4.832327 15.896972 
0.868426 -1.492107 -3.032179 -8.547004 40.913672 -4.992497 0.000000 -0.000000 0.000000 4.043815 -6.007082 3.491694 4.505078 -1.465600 8.782127 0.000000 0.000000 0.000000 4.554051 -2.034722 8.144624 1.834500 -19.372625 0.733173 2.139535 -0.206183 7.722824 -1.630366 -1.305920 -4.129352 -83.722481 -16.005330 -1.058998 0.896440 -6.882694 2.617731 4.182431 -2.778217 8.315938 18.303405 18.691369 3.049721 59.568905 9.911562 -2.499738 -178.921989 57.372680 -173.459003 0.000000 0.000000 -0.000000 4.249882 20.646436 -11.175857 -3.207567 -23.554422 -0.783504 0.000000 -0.000000 0.000000 -1.561357 -23.051995 -4.026680 -3.105804 -4.876953 15.903495 
0.880125 -1.521375 -3.110817 -8.473293 40.772122 -4.913842 0.000000 -0.000000 0.000000 4.010662 -6.040958 3.557242 4.395216 -1.440934 8.710918 0.000000 0.000000 0.000000 4.482101 -2.018044 8.081645 1.708330 -18.928667 0.726983 2.090661 -0.202413 7.683977 -1.610352 -1.427009 -4.088682 -83.656356 -16.132389 -0.877931 1.052070 -6.858375 2.712234 4.088623 -2.767186 8.272649 18.335880 18.748500 2.996317 59.424001 10.329632 -2.132587 -178.808971 58.097292 -173.337661 0.000000 0.000000 -0.000000 4.240699 20.476350 -11.125467 -3.214524 -23.760577 -0.945463 0.000000 -0.000000 0.000000 -1.498614 -23.009296 -4.049667 -3.166410 -4.953304 15.924736 
0.893851 -1.550429 -3.188737 -8.416386 40.655517 -4.846695 0.000000 -0.000000 0.000000 3.950619 -6.101359 3.648469 4.269376 -1.420481 8.641688 0.000000 0.000000 0.000000 4.397308 -2.002084 8.030522 1.607693 -18.442303 0.671640 2.032652 -0.202249 7.654131 -1.586810 -1.571855 -4.040800 -83.578704 -16.267004 -0.699652 1.194111 -6.799291 2.800187 3.979398 -2.764576 8.239180 18.385919 18.792357 2.927309 59.292193 10.759831 -1.881782 -178.716117 58.676546 -173.231865 0.000000 0.000000 -0.000000 4.235676 20.333316 -11.067311 -3.214784 -23.959946 -1.115506 0.000000 -0.000000 0.000000 -1.441308 -22.979100 -4.086378 -3.232521 -5.041197 15.957039 
